<mxfile host="65bd71144e">
    <diagram id="PeictFzrGkAibM9bBBYD" name="Page-1">
        <mxGraphModel dx="1130" dy="1397" grid="1" gridSize="10" guides="1" tooltips="1" connect="1" arrows="1" fold="1" page="1" pageScale="1" pageWidth="850" pageHeight="1100" math="0" shadow="0">
            <root>
                <mxCell id="0"/>
                <mxCell id="1" parent="0"/>
                <mxCell id="2" value="nombre&amp;nbsp; string:&lt;br&gt;vector&amp;lt;Cita&amp;gt;citas&lt;br&gt;tratamiento:Tratamiento" style="swimlane;fontStyle=0;childLayout=stackLayout;horizontal=1;startSize=60;horizontalStack=0;resizeParent=1;resizeParentMax=0;resizeLast=0;collapsible=1;marginBottom=0;whiteSpace=wrap;html=1;" parent="1" vertex="1">
                    <mxGeometry x="230" y="-1060" width="620" height="220" as="geometry"/>
                </mxCell>
                <mxCell id="15" value="Paciente()&lt;br&gt;Paciente(nombre: string , tratamiento:string)&lt;br&gt;getNombre:string&lt;br&gt;setNombre:void&lt;br&gt;getTratamiento();string&lt;br&gt;void setTratamiento(string tratamiento)" style="text;html=1;align=left;verticalAlign=middle;resizable=0;points=[];autosize=1;strokeColor=none;fillColor=none;" parent="2" vertex="1">
                    <mxGeometry y="60" width="620" height="100" as="geometry"/>
                </mxCell>
                <mxCell id="17" value="Tratamiento()&lt;br&gt;Tratamiento(string:string, fechaInicio:fecha, fechaFin:fecha)&lt;br&gt;actualizarFechaFin(fechaFin:fecha):void" style="text;html=1;align=left;verticalAlign=middle;resizable=0;points=[];autosize=1;strokeColor=none;fillColor=none;" parent="2" vertex="1">
                    <mxGeometry y="160" width="620" height="60" as="geometry"/>
                </mxCell>
                <mxCell id="6" value="Paciente&amp;nbsp;" style="rounded=0;whiteSpace=wrap;html=1;" parent="1" vertex="1">
                    <mxGeometry x="230" y="-1080" width="620" height="20" as="geometry"/>
                </mxCell>
                <mxCell id="16" value="tipo:string&lt;br&gt;fechaInicio: fecha&lt;br&gt;fechaFin:fecha&amp;nbsp;" style="swimlane;fontStyle=0;childLayout=stackLayout;horizontal=1;startSize=60;horizontalStack=0;resizeParent=1;resizeParentMax=0;resizeLast=0;collapsible=1;marginBottom=0;whiteSpace=wrap;html=1;" parent="1" vertex="1">
                    <mxGeometry x="500" y="-750" width="342.5" height="120" as="geometry"/>
                </mxCell>
                <mxCell id="18" value="Tratamiento" style="rounded=0;whiteSpace=wrap;html=1;" parent="1" vertex="1">
                    <mxGeometry x="500" y="-780" width="342.5" height="30" as="geometry"/>
                </mxCell>
                <mxCell id="20" value="nombre&amp;nbsp; string:&lt;br&gt;tratamientos:listaCita" style="swimlane;fontStyle=0;childLayout=stackLayout;horizontal=1;startSize=30;horizontalStack=0;resizeParent=1;resizeParentMax=0;resizeLast=0;collapsible=1;marginBottom=0;whiteSpace=wrap;html=1;" parent="1" vertex="1">
                    <mxGeometry x="476.25" y="-580" width="390" height="120" as="geometry"/>
                </mxCell>
                <mxCell id="21" value="Recepcionista()&lt;br&gt;Recepcionista(nombre:string, citas;listaCita)&lt;br&gt;agendarCita(paciente:Paciente, fecha: string, hora:string):void&lt;br&gt;cancelarCita(cita:Cita):void&lt;br&gt;reprogamarCita(cita:Cita, fecha:string,hora:string):void" style="text;html=1;align=left;verticalAlign=middle;resizable=0;points=[];autosize=1;strokeColor=none;fillColor=none;" parent="20" vertex="1">
                    <mxGeometry y="30" width="390" height="90" as="geometry"/>
                </mxCell>
                <mxCell id="22" value="paciente: Paciente&amp;nbsp;&lt;br&gt;recepcionista:Recepcionista&lt;br&gt;dentista:Dentista&lt;br&gt;fecha:string&lt;br&gt;hora: string" style="swimlane;fontStyle=0;childLayout=stackLayout;horizontal=1;startSize=90;horizontalStack=0;resizeParent=1;resizeParentMax=0;resizeLast=0;collapsible=1;marginBottom=0;whiteSpace=wrap;html=1;" parent="1" vertex="1">
                    <mxGeometry x="20" y="-820" width="410" height="220" as="geometry"/>
                </mxCell>
                <mxCell id="24" value="Cita()&lt;br&gt;Cita(paciente:Paciente, string fecha, string hora)&lt;br&gt;getPaciente()&lt;br&gt;setPaciente(paciente:Paciente):void&lt;br&gt;getFecha():string&lt;br&gt;setFecha(string fecha):void&lt;br&gt;getHora():string&lt;br&gt;setHora(hora:string):void" style="text;html=1;align=center;verticalAlign=middle;resizable=0;points=[];autosize=1;strokeColor=none;fillColor=none;" parent="22" vertex="1">
                    <mxGeometry y="90" width="410" height="130" as="geometry"/>
                </mxCell>
                <mxCell id="50" value="" style="endArrow=classic;html=1;entryX=0.472;entryY=1.006;entryDx=0;entryDy=0;entryPerimeter=0;" parent="22" target="24" edge="1">
                    <mxGeometry width="50" height="50" relative="1" as="geometry">
                        <mxPoint x="180" y="200" as="sourcePoint"/>
                        <mxPoint x="230" y="150" as="targetPoint"/>
                    </mxGeometry>
                </mxCell>
                <mxCell id="25" value="Cita" style="rounded=0;whiteSpace=wrap;html=1;" parent="1" vertex="1">
                    <mxGeometry x="20" y="-840" width="410" height="20" as="geometry"/>
                </mxCell>
                <mxCell id="33" value="" style="endArrow=classic;html=1;exitX=0.5;exitY=0;exitDx=0;exitDy=0;entryX=0.012;entryY=0.111;entryDx=0;entryDy=0;entryPerimeter=0;" parent="1" source="25" target="2" edge="1">
                    <mxGeometry width="50" height="50" relative="1" as="geometry">
                        <mxPoint x="340" y="-860" as="sourcePoint"/>
                        <mxPoint x="210" y="-1020" as="targetPoint"/>
                        <Array as="points">
                            <mxPoint x="210" y="-1025"/>
                        </Array>
                    </mxGeometry>
                </mxCell>
                <mxCell id="38" value="Notas" style="swimlane;fontStyle=0;childLayout=stackLayout;horizontal=1;startSize=26;fillColor=none;horizontalStack=0;resizeParent=1;resizeParentMax=0;resizeLast=0;collapsible=1;marginBottom=0;html=1;" parent="1" vertex="1">
                    <mxGeometry x="20" y="-480" width="380" height="180" as="geometry"/>
                </mxCell>
                <mxCell id="42" value="notas:string&lt;br&gt;" style="rounded=0;whiteSpace=wrap;html=1;" parent="38" vertex="1">
                    <mxGeometry y="26" width="380" height="54" as="geometry"/>
                </mxCell>
                <mxCell id="40" value="Notas():&lt;br&gt;getNotas():string&lt;br&gt;setNotas(nuevasNotas:string ):void&lt;br&gt;getFecha()&lt;br&gt;setFecha(nuevaFecha:string)" style="text;strokeColor=none;fillColor=none;align=left;verticalAlign=top;spacingLeft=4;spacingRight=4;overflow=hidden;rotatable=0;points=[[0,0.5],[1,0.5]];portConstraint=eastwest;whiteSpace=wrap;html=1;" parent="38" vertex="1">
                    <mxGeometry y="80" width="380" height="100" as="geometry"/>
                </mxCell>
                <mxCell id="44" value="Dentista&amp;nbsp;" style="swimlane;fontStyle=0;childLayout=stackLayout;horizontal=1;startSize=26;fillColor=none;horizontalStack=0;resizeParent=1;resizeParentMax=0;resizeLast=0;collapsible=1;marginBottom=0;html=1;" parent="1" vertex="1">
                    <mxGeometry x="25" y="-270" width="400" height="220" as="geometry"/>
                </mxCell>
                <mxCell id="47" value="nombreDentista:string&lt;br&gt;notas:Notas&amp;nbsp;" style="text;strokeColor=none;fillColor=none;align=left;verticalAlign=top;spacingLeft=4;spacingRight=4;overflow=hidden;rotatable=0;points=[[0,0.5],[1,0.5]];portConstraint=eastwest;whiteSpace=wrap;html=1;" parent="44" vertex="1">
                    <mxGeometry y="26" width="400" height="64" as="geometry"/>
                </mxCell>
                <mxCell id="49" value="getNotasDentista():string&lt;br&gt;setNotasDentista( nuevasNotas:string ):string&lt;br&gt;crearNota(string contenidoNota):string&lt;br&gt;&lt;br&gt;&lt;br&gt;&amp;nbsp;" style="rounded=0;whiteSpace=wrap;html=1;" parent="44" vertex="1">
                    <mxGeometry y="90" width="400" height="130" as="geometry"/>
                </mxCell>
                <mxCell id="27" value="Recepcionista" style="rounded=0;whiteSpace=wrap;html=1;" parent="1" vertex="1">
                    <mxGeometry x="476.25" y="-600" width="390" height="20" as="geometry"/>
                </mxCell>
                <mxCell id="51" value="" style="endArrow=classic;html=1;entryX=0.726;entryY=0.976;entryDx=0;entryDy=0;entryPerimeter=0;" parent="1" target="17" edge="1">
                    <mxGeometry width="50" height="50" relative="1" as="geometry">
                        <mxPoint x="680" y="-670" as="sourcePoint"/>
                        <mxPoint x="730" y="-720" as="targetPoint"/>
                        <Array as="points">
                            <mxPoint x="680" y="-700"/>
                        </Array>
                    </mxGeometry>
                </mxCell>
                <mxCell id="52" value="" style="endArrow=classic;html=1;entryX=0.403;entryY=1.031;entryDx=0;entryDy=0;entryPerimeter=0;exitX=0.371;exitY=-0.025;exitDx=0;exitDy=0;exitPerimeter=0;" parent="1" source="44" target="40" edge="1">
                    <mxGeometry width="50" height="50" relative="1" as="geometry">
                        <mxPoint x="480" y="-430" as="sourcePoint"/>
                        <mxPoint x="530" y="-480" as="targetPoint"/>
                    </mxGeometry>
                </mxCell>
            </root>
        </mxGraphModel>
    </diagram>
</mxfile>